<?xml version="1.0" encoding="UTF-8" standalone="no"?>
<!DOCTYPE svg PUBLIC "-//W3C//DTD SVG 1.1//EN" "http://www.w3.org/Graphics/SVG/1.1/DTD/svg11.dtd">
<svg width="100%" height="100%" viewBox="0 0 16 16" version="1.1" xmlns="http://www.w3.org/2000/svg" xmlns:xlink="http://www.w3.org/1999/xlink" xml:space="preserve" xmlns:serif="http://www.serif.com/" style="fill-rule:evenodd;clip-rule:evenodd;stroke-linejoin:round;stroke-miterlimit:2;">
    <g transform="matrix(0.61529,0,0,0.61529,-1.83572,-1.84372)">
        <path d="M28.497,14.84L17.143,3.487C16.49,2.833 15.429,2.833 14.775,3.487L12.418,5.845L15.408,8.836C16.103,8.601 16.9,8.759 17.454,9.313C18.011,9.871 18.167,10.674 17.927,11.372L20.809,14.254C21.507,14.013 22.311,14.169 22.868,14.727C23.646,15.505 23.646,16.766 22.868,17.545C22.089,18.324 20.828,18.324 20.049,17.545C19.463,16.959 19.319,16.099 19.615,15.378L16.927,12.69L16.927,19.764C17.117,19.858 17.296,19.983 17.454,20.141C18.232,20.919 18.232,22.18 17.454,22.96C16.676,23.738 15.414,23.738 14.636,22.96C13.858,22.181 13.858,20.92 14.636,20.141C14.828,19.949 15.051,19.803 15.289,19.706L15.289,12.566C15.052,12.469 14.829,12.325 14.636,12.131C14.047,11.542 13.905,10.676 14.207,9.952L11.259,7.003L3.474,14.788C2.82,15.443 2.82,16.503 3.474,17.157L14.828,28.51C15.482,29.164 16.542,29.164 17.197,28.51L28.497,17.209C29.151,16.555 29.151,15.494 28.497,14.84" style="fill:rgb(66,66,66);fill-rule:nonzero;"/>
    </g>
</svg>
